<svg width="32" height="32" viewBox="0 0 32 32" fill="none" xmlns="http://www.w3.org/2000/svg">
<g clip-path="url(#clip0_47_174)">
<circle cx="16" cy="16" r="16" fill="white"/>
<path d="M23 13.5455H22.18L20.48 8.44C20.3393 8.01902 20.0836 7.65526 19.7474 7.39776C19.4112 7.14027 19.0108 7.00144 18.6 7H17C16.45 7 16 7.49091 16 8.09091C16 8.69091 16.45 9.18182 17 9.18182H18.6L20.06 13.5455H15.25L14.89 12.4545H14.98C15.53 12.4545 15.98 11.9636 15.98 11.3636C15.98 10.7636 15.53 10.2727 14.98 10.2727H12C11.45 10.2727 11 10.7636 11 11.3636C11 11.9636 11.45 12.4545 12 12.4545H12.75L14.57 17.9091H13.9C13.46 15.4764 11.59 13.6764 9.25 13.5564C6.45 13.4036 4 15.9455 4 19C4 22.0545 6.2 24.4545 9 24.4545C11.46 24.4545 13.45 22.6109 13.9 20.0909H18.1C18.54 22.5236 20.41 24.3236 22.75 24.4436C25.55 24.5855 28 22.0545 28 18.9891C28 15.9455 25.8 13.5455 23 13.5455ZM10 20.0909H11.82C11.4 21.4327 10.22 22.36 8.8 22.2618C7.31 22.1636 6.07 20.7891 6 19.1527C5.93 17.2436 7.27 15.7273 9 15.7273C10.33 15.7273 11.42 16.6327 11.82 17.9091H10C9.45 17.9091 9 18.4 9 19C9 19.6 9.45 20.0909 10 20.0909ZM18.1 17.9091L16.73 18.1263L16 15.9444L19 15.7273C18.56 16.36 18.24 17.0909 18.1 17.9091ZM22.88 22.2727C21.34 22.2073 20.04 20.7782 20 19.0873C19.98 18.04 20.39 17.1236 21.05 16.5127L21.67 18.3673C21.86 18.9345 22.43 19.2291 22.95 19.0218C23.47 18.8145 23.74 18.1927 23.55 17.6255L22.92 15.7382L22.93 15.7273C23.3309 15.7124 23.7305 15.7862 24.1045 15.9444C24.4785 16.1027 24.8193 16.3419 25.1062 16.6478C25.3932 16.9537 25.6203 17.3198 25.7739 17.7241C25.9275 18.1283 26.0044 18.5624 26 19C26 20.8764 24.62 22.3382 22.88 22.2727Z" fill="url(#paint0_linear_47_174)"/>
</g>
<defs>
<linearGradient id="paint0_linear_47_174" x1="16" y1="7" x2="16" y2="24.4545" gradientUnits="userSpaceOnUse">
<stop stop-color="#FFB60D"/>
<stop offset="1" stop-color="#E59317"/>
</linearGradient>
<clipPath id="clip0_47_174">
<rect width="32" height="32" fill="white"/>
</clipPath>
</defs>
</svg>
