<svg width="140" height="38" viewBox="0 0 140 38" fill="none" xmlns="http://www.w3.org/2000/svg">
<g clip-path="url(#clip0_6_27)">
<path d="M8.394 22.737V27.823C8.394 30.366 7.274 31.283 5.494 31.283C3.714 31.283 2.595 30.366 2.595 27.823V8.596C2.595 6.053 3.715 5.086 5.495 5.086C7.275 5.086 8.394 6.053 8.394 8.596V12.411H13.684V8.952C13.684 3.255 10.835 0 5.342 0C-0.152 0 -3 3.255 -3 8.952V27.467C-3 33.164 -0.152 36.42 5.342 36.42C10.835 36.42 13.684 33.164 13.684 27.467V22.737H8.394ZM29.503 0.407L35.2 36.013H29.554L28.587 29.553H21.721L20.754 36.013H15.617L21.314 0.407H29.503ZM25.078 6.714L22.433 24.721H27.824L25.18 6.713H25.079L25.078 6.714ZM55.19 36.013H49.493C49.188 35.097 48.984 34.537 48.984 31.638V26.043C48.984 22.737 47.865 21.516 45.322 21.516H43.389V36.013H37.794V0.407H46.238C52.036 0.407 54.528 3.103 54.528 8.597V11.394C54.528 15.056 53.358 17.396 50.866 18.566C53.664 19.837 54.579 22.482 54.579 26.196V31.689C54.579 33.419 54.631 34.69 55.19 36.013ZM46.085 5.493H43.389V16.43H45.576C47.662 16.43 48.933 15.515 48.933 12.666V9.156C48.933 6.613 48.069 5.493 46.085 5.493ZM72.242 0.407L77.939 36.013H72.293L71.327 29.553H64.46L63.494 36.013H58.356L64.053 0.407H72.242ZM67.817 6.714L65.172 24.721H70.564L67.919 6.713H67.817V6.714ZM83.115 0.407H77.469L82.962 36.013H91.304L96.797 0.407H91.66L87.438 29.45H87.336L83.115 0.407ZM110.213 0.407L115.91 36.013H110.264L109.298 29.553H102.431L101.464 36.013H96.327L102.024 0.407H110.213ZM105.788 6.714L103.143 24.721H108.535L105.89 6.713H105.788V6.714ZM131.252 36.013H137V0.407H132.015V21.719H131.913L126.267 0.407H119.248V36.013H124.284V10.223H124.385L131.252 36.013Z" fill="#9C9C9C"/>
</g>
<defs>
<clipPath id="clip0_6_27">
<rect width="140" height="38" fill="white"/>
</clipPath>
</defs>
</svg>
