<svg width="152" height="39" viewBox="0 0 152 39" fill="none" xmlns="http://www.w3.org/2000/svg">
<path fill-rule="evenodd" clip-rule="evenodd" d="M23.202 16.8501H25.919C28.727 16.8501 30.244 20.1421 28.415 22.2751L25.755 25.3751C26.043 27.2137 27.014 28.876 28.474 30.0301C29.9354 31.1848 31.778 31.7468 33.635 31.6041C35.4921 31.4614 37.2272 30.6245 38.495 29.2601C39.7618 27.8962 40.4671 26.1045 40.47 24.2431C40.4697 23.9193 40.5334 23.5986 40.6572 23.2994C40.7811 23.0002 40.9627 22.7284 41.1918 22.4995C41.4209 22.2706 41.6928 22.0892 41.9921 21.9655C42.2914 21.8419 42.6122 21.7786 42.936 21.7791C43.5897 21.7794 44.2166 22.0389 44.6791 22.5009C45.1416 22.9628 45.4019 23.5894 45.403 24.2431C45.4028 26.829 44.5883 29.3492 43.075 31.4461C41.942 33.0129 40.4568 34.2917 38.7392 35.1796C37.0216 36.0674 35.1194 36.5395 33.186 36.5578C31.2525 36.5761 29.3418 36.1401 27.6077 35.2849C25.8735 34.4297 24.3645 33.1792 23.202 31.6341C22.0395 33.1792 20.5305 34.4297 18.7963 35.2849C17.0622 36.1401 15.1515 36.5761 13.218 36.5578C11.2846 36.5395 9.38244 36.0674 7.6648 35.1796C5.94716 34.2917 4.46203 33.0129 3.329 31.4461C1.81535 29.3493 1.00048 26.8291 1 24.2431C0.999737 23.9192 1.06339 23.5984 1.18731 23.2992C1.31123 22.9999 1.49299 22.728 1.72216 22.4991C1.95134 22.2702 2.22342 22.0888 2.52284 21.9653C2.82225 21.8417 3.1431 21.7784 3.467 21.7791C4.12069 21.7794 4.74757 22.0389 5.21008 22.5009C5.67259 22.9628 5.93294 23.5894 5.934 24.2431C5.93123 26.1075 6.63353 27.9039 7.9 29.2721C8.84563 30.2935 10.06 31.0276 11.4039 31.3903C12.7477 31.753 14.1666 31.7295 15.4977 31.3226C16.8289 30.9156 18.0183 30.1417 18.9296 29.0895C19.8409 28.0374 20.4372 26.7497 20.65 25.3741L17.988 22.2741C16.16 20.1421 17.676 16.8511 20.488 16.8511L23.202 16.8501Z" fill="#9C9C9C"/>
<path d="M34.7129 10.2801C35.3604 10.2806 36.0018 10.1535 36.6003 9.90614C37.1987 9.65874 37.7426 9.29587 38.2008 8.83823C38.659 8.3806 39.0225 7.83718 39.2706 7.23901C39.5188 6.64085 39.6466 5.99966 39.6469 5.35207C39.6466 4.70449 39.5188 4.0633 39.2706 3.46513C39.0225 2.86697 38.659 2.32355 38.2008 1.86592C37.7426 1.40828 37.1987 1.0454 36.6003 0.798008C36.0018 0.550613 35.3604 0.423548 34.7129 0.424074C34.0654 0.42368 33.4241 0.550841 32.8258 0.798295C32.2274 1.04575 31.6837 1.40865 31.2256 1.86627C30.7675 2.32389 30.4041 2.86727 30.156 3.46537C29.9079 4.06347 29.7801 4.70457 29.7799 5.35207C29.7801 5.99958 29.9079 6.64068 30.156 7.23878C30.4041 7.83688 30.7675 8.38026 31.2256 8.83788C31.6837 9.2955 32.2274 9.6584 32.8258 9.90585C33.4241 10.1533 34.0654 10.2805 34.7129 10.2801ZM11.6899 10.2801C12.3374 10.2805 12.9786 10.1533 13.5769 9.90585C14.1753 9.6584 14.719 9.2955 15.1771 8.83788C15.6352 8.38026 15.9987 7.83688 16.2467 7.23878C16.4948 6.64068 16.6226 5.99958 16.6229 5.35207C16.6226 4.70457 16.4948 4.06347 16.2467 3.46537C15.9987 2.86727 15.6352 2.32389 15.1771 1.86627C14.719 1.40865 14.1753 1.04575 13.5769 0.798295C12.9786 0.550841 12.3374 0.42368 11.6899 0.424074C11.0423 0.423548 10.4009 0.550613 9.80246 0.798008C9.204 1.0454 8.66013 1.40828 8.20194 1.86592C7.74375 2.32355 7.38021 2.86697 7.13209 3.46513C6.88397 4.0633 6.75612 4.70449 6.75586 5.35207C6.75612 5.99966 6.88397 6.64085 7.13209 7.23901C7.38021 7.83718 7.74375 8.3806 8.20194 8.83823C8.66013 9.29587 9.204 9.65874 9.80246 9.90614C10.4009 10.1535 11.0423 10.2806 11.6899 10.2801ZM79.6229 1.62807C80.3829 1.62807 81.0069 1.84507 81.4949 2.27907C81.9829 2.71307 82.2269 3.28307 82.2269 3.98907V28.3241C82.2269 29.0571 81.9969 29.6401 81.5349 30.0741C81.0749 30.5081 80.4639 30.7251 79.7049 30.7251C78.9449 30.7251 78.3349 30.5081 77.8729 30.0751C77.4119 29.6401 77.1809 29.0571 77.1809 28.3251V27.3071C76.5839 28.4191 75.7159 29.2871 74.5759 29.9111C73.4639 30.5351 72.1889 30.8471 70.7509 30.8471C69.0409 30.8471 67.5089 30.4131 66.1529 29.5451C64.8229 28.6771 63.7789 27.4561 63.0189 25.8821C62.2859 24.2821 61.9199 22.4511 61.9199 20.3891C61.9199 18.3271 62.2859 16.5231 63.0189 14.9761C63.7789 13.4301 64.8229 12.2361 66.1529 11.3951C67.4819 10.5541 69.0149 10.1331 70.7509 10.1331C72.1889 10.1331 73.4639 10.4321 74.5769 11.0291C75.6613 11.5989 76.5531 12.4767 77.1399 13.5521V3.90707C77.1399 3.22907 77.3569 2.68607 77.7909 2.27907C78.2529 1.84507 78.8629 1.62807 79.6229 1.62807ZM72.0939 26.9001C73.7219 26.9001 74.9699 26.3441 75.8379 25.2311C76.7329 24.1191 77.1809 22.5311 77.1809 20.4701C77.1809 18.4081 76.7329 16.8341 75.8379 15.7501C74.9699 14.6371 73.7359 14.0801 72.1349 14.0801C70.5069 14.0801 69.2449 14.6231 68.3499 15.7091C67.4549 16.7941 67.0069 18.3541 67.0069 20.3891C67.0069 22.4511 67.4549 24.0511 68.3499 25.1911C69.2449 26.3311 70.4929 26.9001 72.0939 26.9001ZM96.5349 30.8471C94.5009 30.8471 92.7099 30.4271 91.1639 29.5861C89.6439 28.7451 88.4639 27.5381 87.6229 25.9641C86.7819 24.3901 86.3609 22.5591 86.3609 20.4701C86.3609 18.3811 86.7809 16.5631 87.6229 15.0171C88.4639 13.4431 89.6439 12.2361 91.1629 11.3951C92.7099 10.5541 94.5009 10.1331 96.5349 10.1331C98.5699 10.1331 100.347 10.5531 101.866 11.3951C103.389 12.2117 104.625 13.4759 105.407 15.0171C106.248 16.5631 106.669 18.3811 106.669 20.4701C106.669 22.5601 106.248 24.3901 105.407 25.9641C104.625 27.5052 103.389 28.7694 101.866 29.5861C100.347 30.4261 98.5689 30.8471 96.5349 30.8471ZM96.4949 26.9001C98.1499 26.9001 99.4109 26.3571 100.279 25.2721C101.148 24.1871 101.582 22.5861 101.582 20.4701C101.582 18.3811 101.148 16.7941 100.279 15.7091C99.4109 14.5961 98.1629 14.0401 96.5349 14.0401C94.9079 14.0401 93.6449 14.5961 92.7509 15.7091C91.8829 16.7941 91.4479 18.3811 91.4479 20.4701C91.4479 22.5861 91.8819 24.1871 92.7509 25.2721C93.6189 26.3571 94.8669 26.9001 96.4949 26.9001ZM127.716 10.2151C128.476 10.2151 129.086 10.4321 129.547 10.8651C130.009 11.3001 130.239 11.8831 130.239 12.6151V28.6901C130.239 31.8101 129.371 34.1701 127.635 35.7721C125.898 37.3721 123.335 38.1721 119.943 38.1721C116.986 38.1721 114.517 37.6171 112.537 36.5041C111.533 35.9071 111.031 35.1881 111.031 34.3471C111.031 33.7501 111.167 33.2761 111.438 32.9231C111.736 32.5701 112.116 32.3931 112.577 32.3931C112.822 32.3931 113.12 32.4481 113.473 32.5571C113.825 32.6921 114.192 32.8421 114.571 33.0041C115.421 33.3656 116.29 33.6781 117.176 33.9401C117.963 34.1571 118.858 34.2661 119.862 34.2661C123.416 34.2661 125.193 32.5301 125.193 29.0561V26.4521C124.596 27.5651 123.728 28.4321 122.589 29.0571C121.449 29.6541 120.147 29.9521 118.682 29.9521C116.945 29.9521 115.399 29.5451 114.042 28.7321C112.713 27.8901 111.669 26.7241 110.909 25.2321C110.149 23.7391 109.769 22.0171 109.769 20.0631C109.769 18.1101 110.136 16.3871 110.868 14.8951C111.628 13.3751 112.686 12.2091 114.042 11.3951C115.399 10.5541 116.945 10.1331 118.682 10.1331C120.147 10.1331 121.449 10.4451 122.589 11.0691C123.699 11.6373 124.608 12.5322 125.193 13.6331V12.5751C125.193 11.8701 125.424 11.3001 125.885 10.8651C126.346 10.4321 126.957 10.2151 127.716 10.2151ZM120.025 26.0051C121.653 26.0051 122.914 25.4751 123.809 24.4181C124.732 23.3591 125.193 21.9081 125.193 20.0631C125.193 18.1911 124.732 16.7261 123.809 15.6681C122.914 14.6101 121.653 14.0811 120.025 14.0811C118.424 14.0811 117.162 14.6101 116.24 15.6681C115.318 16.7261 114.856 18.1911 114.856 20.0631C114.856 21.9081 115.318 23.3591 116.24 24.4181C117.162 25.4761 118.424 26.0051 120.025 26.0051ZM142.711 30.8471C139.754 30.8471 137.367 30.2641 135.549 29.0971C134.681 28.5821 134.247 27.8491 134.247 26.9001C134.247 26.3571 134.396 25.9231 134.694 25.5981C134.993 25.2451 135.359 25.0681 135.793 25.0681C136.254 25.0681 136.892 25.2861 137.706 25.7201C138.574 26.1271 139.361 26.4391 140.066 26.6561C140.799 26.8731 141.721 26.9811 142.833 26.9811C143.973 26.9811 144.855 26.7911 145.479 26.4111C146.13 26.0311 146.455 25.5031 146.455 24.8241C146.455 24.3641 146.32 23.9971 146.048 23.7261C145.804 23.4541 145.343 23.2101 144.665 22.9931C144.013 22.7491 143.01 22.4781 141.653 22.1791C139.239 21.6911 137.502 20.9991 136.444 20.1041C135.413 19.2091 134.898 17.9741 134.898 16.4011C134.898 15.2071 135.25 14.1351 135.956 13.1851C136.661 12.2091 137.624 11.4631 138.845 10.9471C140.093 10.4051 141.504 10.1331 143.077 10.1331C144.217 10.1331 145.316 10.2831 146.374 10.5811C147.383 10.8313 148.345 11.2433 149.223 11.8011C150.091 12.3441 150.525 13.0631 150.525 13.9591C150.525 14.5011 150.376 14.9631 150.077 15.3421C149.779 15.6951 149.412 15.8721 148.978 15.8721C148.68 15.8721 148.381 15.8171 148.083 15.7091C147.726 15.5273 147.373 15.3372 147.025 15.1391C146.238 14.7321 145.56 14.4341 144.99 14.2441C144.42 14.0271 143.715 13.9181 142.874 13.9181C141.87 13.9181 141.07 14.1221 140.473 14.5281C139.903 14.9351 139.618 15.4921 139.618 16.1971C139.618 16.8751 139.917 17.3911 140.514 17.7431C141.111 18.0961 142.264 18.4491 143.973 18.8021C145.791 19.1821 147.215 19.6151 148.246 20.1041C149.277 20.5921 150.009 21.2031 150.443 21.9351C150.905 22.6681 151.135 23.6041 151.135 24.7431C151.135 26.5881 150.362 28.0671 148.816 29.1791C147.296 30.2911 145.261 30.8471 142.711 30.8471Z" fill="#9C9C9C"/>
</svg>
