<svg width="164" height="38" viewBox="0 0 164 38" fill="none" xmlns="http://www.w3.org/2000/svg">
<g clip-path="url(#clip0_6_10)">
<path d="M5.688 30.072C4.876 30.072 4.218 29.82 3.714 29.316C3.238 28.812 3 28.154 3 27.342V2.772C3 1.96 3.224 1.33 3.672 0.882C4.148 0.434 4.792 0.21 5.604 0.21H20.346C22.054 0.21 22.908 0.938 22.908 2.394C22.908 3.822 22.054 4.536 20.346 4.536H8.334V12.6H19.506C21.214 12.6 22.068 13.328 22.068 14.784C22.068 16.212 21.214 16.926 19.506 16.926H8.334V27.342C8.334 28.154 8.096 28.812 7.62 29.316C7.144 29.82 6.5 30.072 5.688 30.072ZM30.613 30.072C29.857 30.072 29.227 29.862 28.723 29.442C28.247 28.994 28.009 28.364 28.009 27.552V2.478C28.009 1.666 28.247 1.05 28.723 0.63C29.227 0.21 29.857 0 30.613 0C31.369 0 31.999 0.21 32.503 0.63C33.007 1.05 33.259 1.666 33.259 2.478V27.552C33.259 28.364 33.007 28.994 32.503 29.442C31.999 29.862 31.369 30.072 30.613 30.072ZM54.927 24.192C55.403 24.192 55.781 24.374 56.061 24.738C56.369 25.102 56.523 25.592 56.523 26.208C56.523 27.076 56.005 27.804 54.969 28.392C54.017 28.924 52.939 29.358 51.735 29.694C50.531 30.002 49.383 30.156 48.291 30.156C44.987 30.156 42.369 29.204 40.437 27.3C38.505 25.396 37.539 22.792 37.539 19.488C37.539 17.388 37.959 15.526 38.799 13.902C39.639 12.278 40.815 11.018 42.327 10.122C43.867 9.226 45.603 8.778 47.535 8.778C49.383 8.778 50.993 9.184 52.365 9.996C53.737 10.808 54.801 11.956 55.557 13.44C56.313 14.924 56.691 16.674 56.691 18.69C56.691 19.894 56.159 20.496 55.095 20.496H42.705C42.873 22.428 43.419 23.856 44.343 24.78C45.267 25.676 46.611 26.124 48.375 26.124C49.271 26.124 50.055 26.012 50.727 25.788C51.427 25.564 52.211 25.256 53.079 24.864C53.919 24.416 54.535 24.192 54.927 24.192ZM47.66 12.474C46.232 12.474 45.084 12.922 44.216 13.818C43.376 14.714 42.872 16.002 42.704 17.682H52.196C52.14 15.974 51.72 14.686 50.936 13.818C50.152 12.922 49.06 12.474 47.66 12.474ZM78.383 25.956C78.887 26.46 79.139 27.034 79.139 27.678C79.139 28.294 78.901 28.854 78.425 29.358C77.949 29.834 77.389 30.072 76.745 30.072C76.045 30.072 75.443 29.778 74.939 29.19L69.017 22.638L63.095 29.19C62.563 29.75 61.961 30.03 61.289 30.03C60.673 30.03 60.127 29.792 59.651 29.316C59.175 28.84 58.937 28.294 58.937 27.678C58.937 27.034 59.189 26.46 59.693 25.956L65.825 19.278L60.029 12.978C59.525 12.474 59.273 11.9 59.273 11.256C59.273 10.612 59.511 10.066 59.987 9.618C60.463 9.142 61.009 8.904 61.625 8.904C62.297 8.904 62.899 9.184 63.431 9.744L69.017 15.876L74.603 9.744C75.135 9.184 75.737 8.904 76.409 8.904C77.053 8.904 77.599 9.142 78.047 9.618C78.523 10.066 78.761 10.612 78.761 11.256C78.761 11.9 78.509 12.474 78.005 12.978L72.209 19.278L78.383 25.956ZM101.619 14.532C103.327 15.008 104.643 15.876 105.567 17.136C106.519 18.396 106.995 19.936 106.995 21.756C106.995 24.276 106.085 26.25 104.265 27.678C102.473 29.106 99.995 29.82 96.831 29.82H85.995C85.183 29.82 84.539 29.596 84.063 29.148C83.615 28.7 83.391 28.07 83.391 27.258V2.772C83.391 1.96 83.615 1.33 84.063 0.882C84.539 0.434 85.183 0.21 85.995 0.21H96.41C99.49 0.21 101.898 0.896 103.634 2.268C105.398 3.612 106.28 5.502 106.28 7.938C106.28 9.506 105.86 10.864 105.02 12.012C104.208 13.16 103.074 14 101.618 14.532H101.619ZM88.683 12.684H95.529C99.253 12.684 101.115 11.298 101.115 8.526C101.115 7.126 100.653 6.09 99.729 5.418C98.805 4.746 97.405 4.41 95.529 4.41H88.683V12.684ZM96.243 25.62C98.203 25.62 99.631 25.27 100.527 24.57C101.423 23.87 101.871 22.778 101.871 21.294C101.871 19.81 101.409 18.704 100.485 17.976C99.589 17.248 98.175 16.884 96.243 16.884H88.683V25.62H96.243ZM114.203 30.072C113.447 30.072 112.817 29.862 112.313 29.442C111.837 28.994 111.599 28.364 111.599 27.552V2.478C111.599 1.666 111.837 1.05 112.313 0.63C112.817 0.21 113.447 0 114.203 0C114.959 0 115.589 0.21 116.093 0.63C116.597 1.05 116.849 1.666 116.849 2.478V27.552C116.849 28.364 116.597 28.994 116.093 29.442C115.589 29.862 114.959 30.072 114.203 30.072ZM131.629 30.156C129.529 30.156 127.681 29.722 126.085 28.854C124.517 27.986 123.299 26.74 122.431 25.116C121.563 23.492 121.129 21.602 121.129 19.446C121.129 17.29 121.563 15.414 122.431 13.818C123.299 12.194 124.517 10.948 126.085 10.08C127.681 9.212 129.529 8.778 131.629 8.778C133.729 8.778 135.563 9.212 137.131 10.08C138.703 10.923 139.978 12.2277 140.785 13.818C141.653 15.414 142.087 17.29 142.087 19.446C142.087 21.602 141.653 23.492 140.785 25.116C139.978 26.7063 138.703 28.011 137.131 28.854C135.563 29.722 133.729 30.156 131.629 30.156ZM131.587 26.082C133.295 26.082 134.597 25.522 135.493 24.402C136.389 23.282 136.837 21.63 136.837 19.446C136.837 17.29 136.389 15.652 135.493 14.532C134.597 13.384 133.309 12.81 131.629 12.81C129.949 12.81 128.647 13.384 127.723 14.532C126.827 15.652 126.379 17.29 126.379 19.446C126.379 21.63 126.827 23.282 127.723 24.402C128.619 25.522 129.907 26.082 131.587 26.082ZM163.809 8.862C164.593 8.862 165.223 9.086 165.699 9.534C166.175 9.982 166.413 10.584 166.413 11.34V27.93C166.413 31.15 165.517 33.586 163.725 35.238C161.933 36.89 159.287 37.716 155.787 37.716C152.735 37.716 150.187 37.142 148.143 35.994C147.107 35.378 146.589 34.636 146.589 33.768C146.589 33.152 146.729 32.662 147.009 32.298C147.317 31.934 147.709 31.752 148.185 31.752C148.437 31.752 148.745 31.808 149.109 31.92C149.473 32.06 149.851 32.214 150.243 32.382C151.251 32.802 152.147 33.124 152.931 33.348C153.743 33.572 154.667 33.684 155.703 33.684C159.371 33.684 161.205 31.892 161.205 28.308V25.62C160.589 26.768 159.693 27.664 158.517 28.308C157.341 28.924 155.997 29.232 154.485 29.232C152.693 29.232 151.097 28.812 149.697 27.972C148.325 27.104 147.247 25.9 146.463 24.36C145.679 22.82 145.287 21.042 145.287 19.026C145.287 17.01 145.665 15.232 146.421 13.692C147.205 12.124 148.297 10.92 149.697 10.08C151.097 9.212 152.693 8.778 154.485 8.778C155.997 8.778 157.341 9.1 158.517 9.744C159.663 10.3302 160.601 11.2537 161.205 12.39V11.298C161.205 10.57 161.443 9.982 161.919 9.534C162.395 9.086 163.025 8.862 163.809 8.862ZM155.871 25.158C157.551 25.158 158.853 24.612 159.777 23.52C160.729 22.428 161.205 20.93 161.205 19.026C161.205 17.094 160.729 15.582 159.777 14.49C158.853 13.398 157.551 12.852 155.871 12.852C154.219 12.852 152.917 13.398 151.965 14.49C151.013 15.582 150.537 17.094 150.537 19.026C150.537 20.93 151.013 22.428 151.965 23.52C152.917 24.612 154.219 25.158 155.871 25.158Z" fill="#9C9C9C"/>
</g>
<defs>
<clipPath id="clip0_6_10">
<rect width="164" height="38" fill="white"/>
</clipPath>
</defs>
</svg>
