<svg width="139" height="50" viewBox="0 0 139 50" fill="none" xmlns="http://www.w3.org/2000/svg">
<g clip-path="url(#clip0_6_12)">
<path d="M21.912 10.784L17.31 39.082H10.698L12.378 28.864H5.256L3.61 39.082H-3L1.639 10.784H8.214L6.242 22.732H13.364L15.338 10.784H21.912ZM35.473 39.082L35.693 32.912H29.593L27.803 39.082H20.826L30.214 10.784H42.267L42.414 39.082H35.473ZM33.976 17.662L31.091 27.645H35.876L36.277 17.663L33.976 17.662ZM70.783 10.784L66.18 39.082H59.568L54.967 23.598L52.483 39.083H45.87L50.509 10.784H57.303L61.833 25.248L64.206 10.784H70.783ZM86.208 10.784C89.398 10.784 91.675 11.649 93.038 13.378C94.037 14.688 94.535 16.326 94.535 18.291C94.535 18.999 94.475 19.745 94.354 20.531L92.929 29.296C92.442 32.256 91.248 34.628 89.349 36.41C87.449 38.192 84.99 39.082 81.969 39.082H71.34L75.98 10.784H86.208ZM83.906 16.916H81.532L78.939 32.95H82.409C83.553 32.95 84.442 32.622 85.075 31.968C85.733 31.286 86.183 30.186 86.425 28.667L87.486 22.221C87.578 21.701 87.627 21.175 87.632 20.648C87.632 18.158 86.391 16.916 83.906 16.916ZM114.112 39.082H95.775L100.416 10.784H118.753L117.73 16.916H105.968L105.128 22.222H114.844L113.822 28.352H104.105L103.375 32.951H115.137L114.112 39.082ZM134.977 39.082H118.32L122.96 10.784H129.535L125.919 32.951H136L134.977 39.082ZM70.471 44.118H134.014L132.029 50H68.486L70.471 44.118ZM3.95 0H73.45L71.464 5.882H1.964L3.95 0Z" fill="#9C9C9C"/>
</g>
<defs>
<clipPath id="clip0_6_12">
<rect width="139" height="50" fill="white"/>
</clipPath>
</defs>
</svg>
