<svg width="200" height="49" viewBox="0 0 200 49" fill="none" xmlns="http://www.w3.org/2000/svg">
<g clip-path="url(#clip0_6_22)">
<path d="M54.3807 44.0141C51.0607 44.0141 48.5157 43.4461 46.7447 42.3101C45.0047 41.1421 44.1357 39.4371 44.1357 37.1961C44.1357 36.0601 44.5157 35.1281 45.2737 34.4021C46.0647 33.6451 47.0767 33.2661 48.3097 33.2661C49.0367 33.2981 49.5897 33.4861 49.9697 33.8341C50.3497 34.1501 50.5397 34.4501 50.5397 34.7341C50.5397 34.7651 50.3807 34.8761 50.0647 35.0651C49.7487 35.2551 49.4647 35.5391 49.2107 35.9171C48.9577 36.2971 48.8307 36.8171 48.8307 37.4801C48.8307 38.9641 49.2747 40.1161 50.1597 40.9371C51.0767 41.7261 52.4837 42.1201 54.3807 42.1201C55.6777 42.1201 56.8157 41.8681 57.7967 41.3631C58.7767 40.8581 59.5197 40.1951 60.0257 39.3741C60.5627 38.5221 60.8317 37.6381 60.8317 36.7221C60.8317 35.5861 60.4997 34.6081 59.8357 33.7871C59.1908 32.9555 58.3843 32.2629 57.4647 31.7511C56.5147 31.1831 55.2187 30.5351 53.5747 29.8091C51.6777 28.9571 50.1447 28.1841 48.9747 27.4891C47.799 26.7902 46.781 25.8552 45.9847 24.7431C45.1637 23.5751 44.7527 22.1391 44.7527 20.4341C44.7527 17.6881 45.6847 15.6361 47.5507 14.2791C49.4487 12.9211 51.9307 12.2431 54.9977 12.2431C57.4007 12.2431 59.4877 12.7481 61.2587 13.7581C63.0617 14.7681 63.9627 16.2521 63.9627 18.2081C63.9627 19.3451 63.5667 20.2921 62.7767 21.0501C62.0177 21.7761 61.0217 22.1391 59.7887 22.1391C59.0607 22.1071 58.5077 21.9331 58.1287 21.6181C57.7487 21.2711 57.5587 20.9551 57.5587 20.6711C57.5587 20.6391 57.7647 20.5291 58.1757 20.3391C58.6187 20.1501 58.9977 19.8661 59.3137 19.4871C59.6617 19.1081 59.8357 18.5871 59.8357 17.9251C59.8357 16.7571 59.3777 15.8411 58.4607 15.1781C57.5747 14.5151 56.4367 14.1841 55.0447 14.1841C53.1167 14.1841 51.6457 14.6421 50.6347 15.5571C49.6537 16.4411 49.1637 17.5461 49.1637 18.8721C49.1637 19.9761 49.4637 20.9081 50.0647 21.6651C50.6647 22.3911 51.6297 23.1171 52.9577 23.8431C54.1093 24.4486 55.2799 25.0172 56.4677 25.5481C58.4917 26.4631 60.0887 27.3001 61.2587 28.0581C62.4634 28.8188 63.484 29.8377 64.2467 31.0411C65.0687 32.2711 65.4807 33.8031 65.4807 35.6331C65.4807 37.2121 64.9747 38.6481 63.9627 39.9431C62.9827 41.2051 61.6377 42.1991 59.9307 42.9251C58.2547 43.6511 56.4047 44.0141 54.3807 44.0141ZM78.3937 43.6361C76.2437 43.6361 74.5357 42.9881 73.2707 41.6941C72.0057 40.4001 71.3737 38.6951 71.3737 36.5801V27.8201C71.3737 27.0001 71.3417 26.4001 71.2787 26.0211C71.2477 25.6431 71.0577 25.3111 70.7087 25.0271C70.3617 24.7431 69.7767 24.6011 68.9547 24.6011C68.5747 24.6011 68.2907 24.5541 68.1007 24.4591C67.9107 24.3331 67.8167 24.0641 67.8167 23.6541C67.8167 23.4641 67.8797 23.2911 68.0067 23.1341C68.1327 22.9441 68.3227 22.8341 68.5757 22.8021C70.5677 22.5171 72.2757 22.1071 73.6977 21.5701C74.1407 21.4131 74.5037 21.3181 74.7887 21.2861H74.9307C75.4367 21.2861 75.6907 21.5861 75.6907 22.1861V36.5331C75.6907 37.9851 76.1487 39.1061 77.0657 39.8951C77.9546 40.6425 79.0825 41.0456 80.2437 41.0311C81.7297 41.0311 82.9937 40.6681 84.0377 39.9421C85.0817 39.2161 85.7777 38.4901 86.1247 37.7641V27.8211C86.1247 27.0001 86.0937 26.4011 86.0307 26.0211C85.9987 25.6431 85.8087 25.3111 85.4607 25.0271C85.1127 24.7431 84.5277 24.6011 83.7057 24.6011C83.3257 24.6011 83.0417 24.5541 82.8527 24.4591C82.6627 24.3331 82.5677 24.0641 82.5677 23.6541C82.5677 23.4641 82.6307 23.2911 82.7577 23.1341C82.8837 22.9441 83.0737 22.8341 83.3267 22.8021C85.3187 22.5171 87.0267 22.1071 88.4497 21.5701C88.8917 21.4131 89.2557 21.3181 89.5397 21.2861H89.6827C90.1887 21.2861 90.4417 21.5861 90.4417 22.1861V38.5701C90.4417 40.4331 91.6907 41.3641 94.1887 41.3641C94.7257 41.3641 94.9947 41.6641 94.9947 42.2641C94.9947 42.7051 94.7257 42.9741 94.1887 43.0681L86.5517 43.5891C86.3307 43.5891 86.2037 43.5101 86.1717 43.3531C86.1417 43.2261 86.1247 42.9901 86.1247 42.6431V39.9901H86.0307C85.3048 40.672 84.5612 41.3349 83.8007 41.9781C83.2317 42.4201 82.4887 42.7991 81.5707 43.1151C80.6857 43.4621 79.6267 43.6351 78.3937 43.6351V43.6361ZM97.5897 43.2101C97.4792 43.2096 97.3703 43.1836 97.2714 43.1342C97.1726 43.0848 97.0864 43.0132 97.0197 42.9251C96.8937 42.7361 96.8297 42.5151 96.8297 42.2631C96.8617 41.8531 96.9567 41.6151 97.1147 41.5531C97.2737 41.4581 97.5577 41.4101 97.9687 41.4101C98.7907 41.4101 99.3757 41.2681 99.7237 40.9841C100.072 40.7001 100.262 40.3681 100.293 39.9901C100.357 39.6101 100.388 39.0111 100.388 38.1901V27.3471C100.388 26.5271 100.357 25.9271 100.293 25.5471C100.262 25.1691 100.072 24.8371 99.7237 24.5541C99.3757 24.2701 98.7907 24.1271 97.9687 24.1271C97.5887 24.1271 97.3047 24.0801 97.1157 23.9851C96.9257 23.8591 96.8307 23.5911 96.8307 23.1801C96.8307 22.9911 96.8937 22.8171 97.0207 22.6601C97.1467 22.4701 97.3367 22.3601 97.5897 22.3281C99.6447 22.0121 101.337 21.6021 102.665 21.0971C103.203 20.9391 103.566 20.8441 103.756 20.8131H103.898C104.404 20.8131 104.657 21.1131 104.657 21.7131V24.6481H104.799C105.906 23.5431 107.029 22.6751 108.167 22.0441C109.306 21.3811 110.333 21.0501 111.25 21.0501C112.294 21.0501 113.116 21.4441 113.717 22.2331C114.349 22.9911 114.665 23.8751 114.665 24.8851C114.665 25.7691 114.397 26.5581 113.859 27.2521C113.321 27.9471 112.578 28.2941 111.63 28.2941C111.217 28.3013 110.809 28.2036 110.444 28.0101C110.128 27.8201 109.954 27.6631 109.922 27.5371C109.954 27.4741 110.112 27.2841 110.396 26.9681C110.681 26.6211 110.823 26.2271 110.823 25.7851C110.823 25.2161 110.665 24.7591 110.349 24.4121C110.064 24.0641 109.669 23.8911 109.163 23.8911C108.626 23.8911 107.946 24.1591 107.124 24.6961C106.301 25.2011 105.495 25.8481 104.705 26.6371V38.1901C104.705 39.0111 104.736 39.6101 104.799 39.9901C104.863 40.3681 105.068 40.7001 105.416 40.9841C105.764 41.2681 106.349 41.4101 107.171 41.4101H107.456C107.709 41.4101 107.898 41.4581 108.025 41.5521C108.151 41.6471 108.23 41.8841 108.262 42.2621C108.262 42.5151 108.199 42.7361 108.072 42.9251C107.946 43.1151 107.756 43.2101 107.503 43.2101C105.844 43.12 104.184 43.0723 102.523 43.0671C101.1 43.0671 99.4557 43.1161 97.5897 43.2101ZM171.257 43.6361C169.107 43.6361 167.194 43.1301 165.518 42.1201C163.842 41.0791 162.53 39.7211 161.581 38.0481C160.676 36.3928 160.204 34.5363 160.206 32.6501C160.206 30.2831 160.759 28.2311 161.866 26.4951C162.973 24.7271 164.38 23.3851 166.087 22.4701C167.795 21.5231 169.518 21.0501 171.257 21.0501C173.408 21.0501 175.321 21.5701 176.997 22.6121C178.641 23.5888 179.986 24.9971 180.886 26.6841C181.822 28.3112 182.313 30.1567 182.309 32.0341C182.309 34.4021 181.74 36.4701 180.602 38.2381C179.495 39.9741 178.088 41.3151 176.38 42.2621C174.673 43.1781 172.965 43.6361 171.257 43.6361ZM171.257 41.8841C173.408 41.8841 174.973 40.9681 175.953 39.1371C176.965 37.3071 177.471 34.9391 177.471 32.0351C177.471 29.3201 176.949 27.1111 175.906 25.4051C174.894 23.6701 173.344 22.8021 171.257 22.8021C169.076 22.8021 167.495 23.7021 166.514 25.5011C165.534 27.3001 165.044 29.6511 165.044 32.5561C165.044 35.2701 165.55 37.5121 166.562 39.2791C167.574 41.0161 169.139 41.8841 171.257 41.8841ZM194.261 43.8721C192.711 43.8721 191.383 43.3041 190.276 42.1681C189.17 41.0311 188.616 39.4061 188.616 37.2911V23.3701L185.865 23.4651C185.773 23.4658 185.682 23.4448 185.599 23.4036C185.517 23.3624 185.445 23.3022 185.391 23.2281C185.266 23.0468 185.2 22.832 185.201 22.6121C185.201 22.3281 185.249 22.0921 185.343 21.9021C185.47 21.6811 185.644 21.5551 185.865 21.5231C186.972 21.3031 187.826 20.9551 188.427 20.4821C189.059 19.9761 189.518 19.4401 189.802 18.8721C190.087 18.2721 190.435 17.3721 190.846 16.1721C191.004 15.7621 191.352 15.5571 191.889 15.5571C192.11 15.5571 192.332 15.6201 192.553 15.7471C192.774 15.8411 192.885 15.9991 192.885 16.2201L192.553 21.6181L198.103 21.2861H198.198C198.609 21.2861 198.814 21.5861 198.814 22.1861C198.814 22.5331 198.751 22.8651 198.624 23.1801C198.53 23.4651 198.403 23.6071 198.245 23.6071L192.933 23.4651V37.8591C192.933 38.9011 193.138 39.7691 193.549 40.4631C193.992 41.1581 194.703 41.5051 195.684 41.5051C196.664 41.5051 197.534 41.3311 198.292 40.9841C198.704 40.8261 198.956 40.7471 199.051 40.7471C199.273 40.7471 199.447 40.8421 199.573 41.0311C199.7 41.1891 199.826 41.4111 199.953 41.6941C199.986 41.7685 200.002 41.8495 200 41.9311C200 42.0571 199.905 42.1991 199.715 42.3571C198.798 42.9571 197.929 43.3521 197.107 43.5411C196.316 43.7611 195.367 43.8721 194.261 43.8721ZM117.597 42.9251C117.723 43.1151 117.913 43.2091 118.166 43.2091C119.809 43.1189 121.453 43.0716 123.099 43.0671C125.218 43.0671 127.194 43.1151 129.028 43.2091C129.132 43.2115 129.235 43.1865 129.327 43.1367C129.418 43.0868 129.495 43.0139 129.55 42.9251C129.676 42.7351 129.739 42.5151 129.739 42.2621C129.708 41.8841 129.629 41.6471 129.502 41.5521C129.407 41.4581 129.218 41.4101 128.933 41.4101H128.648C127.605 41.4101 126.862 41.3311 126.419 41.1731C125.976 41.0161 125.676 40.7311 125.518 40.3211C125.36 39.8791 125.281 39.1691 125.281 38.1911V23.4631H130.309C130.419 23.4626 130.528 23.4367 130.626 23.3874C130.725 23.3382 130.811 23.2669 130.878 23.1791C131.036 22.9901 131.115 22.7691 131.115 22.5161C131.083 22.1381 130.988 21.9011 130.83 21.8061C130.704 21.6801 130.498 21.6161 130.214 21.6161H125.281V18.7761C125.281 17.2611 125.344 15.9351 125.47 14.7981C125.588 13.6566 125.961 12.5563 126.561 11.5781C127.162 10.6001 128.095 10.1111 129.36 10.1111C129.505 10.1111 129.646 10.1191 129.782 10.1361C129.764 9.60562 129.799 9.07469 129.886 8.5511C129.821 8.54931 129.756 8.54831 129.692 8.5481C126.909 8.6111 124.743 9.6681 123.194 11.7211C121.676 13.7411 120.917 16.3771 120.917 19.6281V21.6171H118.071C117.66 21.6171 117.375 21.6641 117.217 21.7591C117.059 21.8221 116.964 22.0751 116.933 22.5161C116.933 22.7691 116.996 22.9901 117.122 23.1791C117.281 23.3691 117.486 23.4641 117.739 23.4641H120.917V38.1901C120.917 39.0431 120.885 39.6581 120.822 40.0371C120.791 40.3841 120.601 40.7001 120.253 40.9841C119.905 41.2681 119.32 41.4101 118.498 41.4101C118.087 41.4101 117.802 41.4581 117.644 41.5521C117.518 41.6151 117.439 41.8521 117.407 42.2621C117.407 42.5151 117.47 42.7361 117.597 42.9251Z" fill="#9C9C9C"/>
<path fill-rule="evenodd" clip-rule="evenodd" d="M142.952 9.865C142.951 10.5564 142.814 11.2409 142.549 11.8794C142.284 12.518 141.895 13.098 141.406 13.5865C140.917 14.0749 140.336 14.4622 139.697 14.7261C139.058 14.9901 138.373 15.1257 137.682 15.125C136.285 15.1261 134.946 14.5725 133.958 13.5862C132.969 12.5998 132.413 11.2613 132.412 9.865C132.412 9.17346 132.549 8.48879 132.814 7.85009C133.079 7.21139 133.468 6.63117 133.957 6.14255C134.446 5.65392 135.027 5.26647 135.666 5.00232C136.305 4.73816 136.99 4.60247 137.682 4.603C138.373 4.60234 139.058 4.73794 139.697 5.00205C140.337 5.26616 140.917 5.6536 141.407 6.14225C141.896 6.6309 142.285 7.21118 142.55 7.84994C142.815 8.4887 142.951 9.17342 142.952 9.865ZM137.682 12.495C138.027 12.4954 138.37 12.4277 138.689 12.2957C139.009 12.1637 139.299 11.9701 139.544 11.7259C139.789 11.4816 139.983 11.1916 140.116 10.8723C140.248 10.553 140.316 10.2107 140.317 9.865C140.317 9.51919 140.248 9.1768 140.116 8.85739C139.983 8.53798 139.789 8.24782 139.544 8.00348C139.3 7.75914 139.009 7.56542 138.69 7.43339C138.37 7.30136 138.028 7.2336 137.682 7.234C136.984 7.23373 136.314 7.51058 135.82 8.00371C135.326 8.49685 135.048 9.16594 135.047 9.864C135.048 10.5622 135.326 11.2316 135.82 11.7249C136.314 12.2183 136.984 12.4953 137.682 12.495ZM135.372 17.414V42.784C135.372 43.067 135.452 43.288 135.61 43.446C135.768 43.636 135.989 43.73 136.274 43.73C136.558 43.73 136.795 43.604 136.985 43.352C137.175 43.131 137.349 42.799 137.507 42.357C137.665 41.915 137.807 41.568 137.934 41.315H138.171C140.226 42.862 142.661 43.635 145.475 43.635C147.373 43.635 149.159 43.13 150.835 42.12C152.511 41.11 153.839 39.737 154.82 38C155.831 36.233 156.337 34.292 156.337 32.177C156.337 30.03 155.895 28.121 155.009 26.447C154.156 24.743 152.97 23.417 151.452 22.47C149.934 21.523 148.242 21.05 146.377 21.05C145.238 21.05 144.084 21.286 142.914 21.76C141.776 22.202 140.748 22.88 139.831 23.796H139.689V17.5C138.269 17.8685 136.775 17.8388 135.372 17.414ZM149.697 39.421C148.527 41.158 146.977 42.026 145.049 42.026C144.037 42.026 143.136 41.805 142.345 41.363C141.586 40.921 140.969 40.4 140.495 39.8C140.052 39.169 139.784 38.6 139.689 38.096V25.596C141.048 24.143 142.724 23.417 144.717 23.417C146.962 23.417 148.653 24.301 149.792 26.069C150.93 27.805 151.499 29.904 151.499 32.366C151.499 35.302 150.899 37.654 149.697 39.421ZM12.6997 0.366998C13.0352 0.127971 13.4368 -0.000488281 13.8487 -0.000488281C14.2606 -0.000488281 14.6623 0.127971 14.9977 0.366998C23.5577 6.471 27.4377 13.788 27.6827 24.287C27.7957 29.3 27.3127 33.89 25.8417 37.855C24.3317 41.823 21.6487 45.488 17.6987 48.584C17.4528 48.7751 17.1652 48.9055 16.8594 48.9646C16.5536 49.0237 16.2382 49.0098 15.9387 48.924C14.7287 48.577 14.5227 47.145 13.8487 46.253C13.1747 47.145 12.9707 48.576 11.7587 48.923C11.4594 49.0086 11.1442 49.0224 10.8386 48.9633C10.5329 48.9043 10.2456 48.774 9.99973 48.583C6.04973 45.488 3.36573 41.823 1.85673 37.855C0.386726 33.89 -0.0972739 29.3 0.0157261 24.287C0.259726 13.788 4.13973 6.47 12.6997 0.366998ZM17.1257 44.062C19.5977 41.792 21.0877 39.317 22.1397 36.47C23.4647 32.99 23.8467 29.144 23.7317 24.379C23.5417 16.192 21.6217 10.865 15.8087 5.919V20.387C18.0817 20.971 19.1017 23.197 19.1017 25.647C19.1017 28.099 18.0817 30.325 15.8087 30.909V42.746C15.8087 42.746 16.8647 43.719 17.1257 44.062ZM10.5377 44.062C8.06573 41.792 6.61073 39.317 5.55773 36.47C4.23373 32.99 3.85173 29.144 3.96773 24.379C4.15773 16.209 6.06673 10.859 11.8557 5.919V20.387C9.58273 20.971 8.56173 23.197 8.56173 25.647C8.56173 28.099 9.58173 30.325 11.8557 30.909V42.746C11.8557 42.746 10.7897 43.731 10.5377 44.062ZM13.8317 23.017C13.1336 23.0165 12.4638 23.2932 11.9697 23.7864C11.4756 24.2796 11.1975 24.9489 11.1967 25.647C11.1967 27.101 12.3767 28.278 13.8317 28.278C14.5299 28.2785 15.1996 28.0018 15.6938 27.5086C16.1879 27.0154 16.4659 26.3461 16.4667 25.648C16.4667 24.195 15.2867 23.017 13.8317 23.017Z" fill="#9C9C9C"/>
</g>
<defs>
<clipPath id="clip0_6_22">
<rect width="200" height="49" fill="white"/>
</clipPath>
</defs>
</svg>
