<svg width="136" height="28" viewBox="0 0 136 28" fill="none" xmlns="http://www.w3.org/2000/svg">
<path d="M5.13273 11.0526C5.79265 10.1419 6.69699 9.40195 7.84574 8.83276C9.01894 8.26358 10.351 7.97899 11.8419 7.97899C13.5773 7.97899 15.1415 8.37742 16.5347 9.17428C17.9523 9.97114 19.0644 11.1095 19.871 12.5894C20.702 14.0465 21.1175 15.7427 21.1175 17.6779C21.1175 19.6131 20.702 21.3321 19.871 22.8347C19.0644 24.3146 17.9523 25.4644 16.5347 26.284C15.1415 27.1036 13.5773 27.5134 11.8419 27.5134C10.3266 27.5134 8.9945 27.2402 7.84574 26.6938C6.72143 26.1246 5.81709 25.3961 5.13273 24.5081V27.2061H0V1.93423H5.13273V11.0526ZM15.8748 17.6779C15.8748 16.5395 15.6182 15.5605 15.1049 14.7409C14.6161 13.8985 13.9561 13.261 13.1251 12.8284C12.323 12.3969 11.4117 12.1729 10.4854 12.1796C9.55665 12.1796 8.67675 12.4073 7.84574 12.8626C7.03917 13.2952 6.37925 13.9327 5.86598 14.7751C5.37714 15.6175 5.13273 16.6078 5.13273 17.7462C5.13273 18.8846 5.37714 19.875 5.86598 20.7174C6.37925 21.5598 7.03917 22.2086 7.84574 22.664C8.67675 23.0966 9.55665 23.3129 10.4854 23.3129C11.4387 23.3129 12.3185 23.0852 13.1251 22.6298C13.9561 22.1745 14.6161 21.5256 15.1049 20.6832C15.6182 19.8408 15.8748 18.8391 15.8748 17.6779ZM27.4499 6.03237C26.5456 6.03237 25.7879 5.77054 25.1768 5.24689C24.5903 4.70047 24.297 4.02884 24.297 3.23197C24.297 2.43511 24.5903 1.77486 25.1768 1.25121C25.7879 0.704789 26.5456 0.43158 27.4499 0.43158C28.3543 0.43158 29.0997 0.704789 29.6863 1.25121C30.2974 1.77486 30.6029 2.43511 30.6029 3.23197C30.6029 4.02884 30.2974 4.70047 29.6863 5.24689C29.0997 5.77054 28.3543 6.03237 27.4499 6.03237ZM29.9796 8.28635V27.2061H24.8469V8.28635H29.9796ZM47.0765 27.2061L40.184 19.1464V27.2061H35.0512V1.93423H40.184V16.3119L47.0032 8.28635H53.6757L44.7301 17.7804L53.749 27.2061H47.0765ZM54.1228 17.7462C54.1228 15.7882 54.5505 14.0807 55.406 12.6235C56.2614 11.1437 57.4468 10.0053 58.9622 9.20843C60.4776 8.3888 62.2129 7.97899 64.1683 7.97899C66.6858 7.97899 68.7633 8.57094 70.4009 9.75485C72.0629 10.916 73.175 12.5552 73.7371 14.6726H68.2021C67.9089 13.853 67.4078 13.2155 66.699 12.7601C66.0146 12.282 65.1592 12.043 64.1326 12.043C62.6661 12.043 61.5052 12.5439 60.6497 13.5456C59.7943 14.5246 59.3665 15.9248 59.3665 17.7462C59.3665 19.5448 59.7943 20.945 60.6497 21.9468C61.5052 22.9258 62.6661 23.4153 64.1326 23.4153C66.2102 23.4153 67.5667 22.5501 68.2021 20.8198H73.7382C73.176 22.8689 72.0639 24.4968 70.4019 25.7034C68.7399 26.9101 66.6623 27.5134 64.1693 27.5134C62.214 27.5134 60.4786 27.115 58.9632 26.3182C57.4599 25.5101 56.2283 24.3274 55.407 22.903C54.5515 21.4232 54.1228 19.7042 54.1228 17.7462ZM81.6124 11.2233C82.2418 10.2496 83.1244 9.43914 84.1788 8.86692C85.2542 8.29773 86.4763 8.01314 87.845 8.01314V13.0334H86.4885C84.8754 13.0334 83.6533 13.3863 82.8223 14.092C82.0157 14.7978 81.6124 16.0273 81.6124 17.7804V27.2061H76.4797V8.28635H81.6124V11.2233ZM103.583 24.5081C103.021 25.3733 102.105 26.1019 100.834 26.6938C99.5627 27.263 98.194 27.5476 96.7275 27.5476C95.4565 27.5476 94.3078 27.3085 93.2812 26.8304C92.2547 26.3523 91.4481 25.6921 90.8615 24.8497C90.2749 24.0073 89.9816 23.0396 89.9816 21.9468C89.9816 20.1937 90.6782 18.7594 92.0714 17.6438C93.489 16.5282 95.6032 15.9704 98.414 15.9704H103.583C103.534 14.7637 103.156 13.8074 102.447 13.1017C101.762 12.3731 100.809 12.0088 99.5872 12.0088C98.5117 12.0088 97.6196 12.282 96.9108 12.8284C96.202 13.3521 95.7498 14.092 95.5543 15.0483H90.4216C90.666 13.6822 91.1915 12.4642 91.998 11.3941C92.8218 10.307 93.9332 9.43639 95.2243 8.86692C96.5686 8.25219 98.0718 7.94483 99.7338 7.94483C101.445 7.94483 102.985 8.27496 104.353 8.93522C105.713 9.56597 106.846 10.5507 107.616 11.7698C108.398 12.9992 108.789 14.4449 108.789 16.107V27.2061H103.583V24.5081ZM98.2307 23.6885C99.0861 23.6885 99.9171 23.5178 100.724 23.1763C101.555 22.8347 102.239 22.3225 102.777 21.6395C103.314 20.9564 103.583 20.1482 103.583 19.2147V19.0781H98.7073C97.5341 19.0781 96.6542 19.2944 96.0676 19.727C95.5054 20.1596 95.2243 20.7288 95.2243 21.4345C95.2243 22.1176 95.481 22.664 95.9942 23.0738C96.532 23.4836 97.2774 23.6885 98.2307 23.6885ZM119.614 12.2137V27.2061H114.408V12.2137H112.098V8.28635H114.408V7.33011C114.408 5.00783 115.117 3.30028 116.534 2.20744C117.952 1.1146 120.091 0.602335 122.95 0.670638V4.70047C121.704 4.67771 120.836 4.87123 120.347 5.28104C119.858 5.69086 119.614 6.4308 119.614 7.50087V8.28635H126.284V3.60764H131.454V8.28635H136V12.2137H131.454V21.3662C131.454 22.0037 131.613 22.4705 131.93 22.7664C132.273 23.0396 132.835 23.1763 133.617 23.1763H136V27.2061H132.774C128.448 27.2061 126.284 25.2481 126.284 21.3321V12.2137H119.614Z" fill="white"/>
</svg>
